<svg id="Lights_On" data-name="Lights On" xmlns="http://www.w3.org/2000/svg" width="548" height="658"
     viewBox="0 0 548 658">
    <title>edison-logo</title>
    <g id="Logo">
        <path d="M284,136.36a54.14,54.14,0,0,1,48.38-29.88c.44,0,.86.06,1.29.07A28.86,28.86,0,0,1,336.55,119,29.1,29.1,0,0,1,284,136.36m23.36,153.77a29,29,0,0,0-22.66,11,45.58,45.58,0,0,0,51.61,20.68c.07-.83.24-1.61.24-2.46a29.2,29.2,0,0,0-29.19-29.22m25-75.13a54.19,54.19,0,0,0,52.34-40.31A62.48,62.48,0,0,0,286,188.8,54.14,54.14,0,0,0,332.38,215m3.45-68.54c1.62-.11,3.24-.33,4.89-.33a72.4,72.4,0,0,1,45.77,16.17c0-.53.11-1,.11-1.56a54.19,54.19,0,0,0-41.26-52.61A38,38,0,0,1,347,119a39.47,39.47,0,0,1-11.15,27.46M301.09,158a39,39,0,0,1-21.19-10.67A52.15,52.15,0,0,0,281,177.52,72.85,72.85,0,0,1,301.09,158m23,73.66a45.73,45.73,0,0,0-37.21,19.14,62.38,62.38,0,0,0,82.93,23.76A45.85,45.85,0,0,0,324,231.7m-22.89,48.55a73.7,73.7,0,0,1-19.83-19,44.26,44.26,0,0,0-1.17,29.49,39.28,39.28,0,0,1,21-10.49m39.57,12c-1.63,0-3.25-.19-4.87-.3a39.34,39.34,0,0,1,10.93,25.43,45.9,45.9,0,0,0,22.23-31,73.09,73.09,0,0,1-28.29,5.85M325.83,96.5a28.77,28.77,0,0,0-18.47-6.72A29.2,29.2,0,0,0,278.17,119a28.39,28.39,0,0,0,.64,5.72,64.08,64.08,0,0,1,47-28.22M313.18,222.43a64,64,0,0,1-31.92-22.3,62.14,62.14,0,0,0-3.09,19,61.5,61.5,0,0,0,3.83,21.1,56.5,56.5,0,0,1,31.18-17.84M392.44,184a64.68,64.68,0,0,1-49.67,40.59,56.48,56.48,0,0,1,36.7,43.56,62.36,62.36,0,0,0,13-84.15M324,334a55.65,55.65,0,0,1-44.7-22.27,28.11,28.11,0,0,0-1.17,7.66,29.06,29.06,0,0,0,54.71,13.81,55.34,55.34,0,0,1-8.84.8"
              fill="#005eb8" fill-rule="evenodd"/>
        <path d="M240.64,148.22A29.2,29.2,0,0,1,211.45,119a28.9,28.9,0,0,1,2.88-12.45c.43,0,.85-.07,1.29-.07A54.14,54.14,0,0,1,264,136.36a29.06,29.06,0,0,1-23.36,11.86M211.45,319.35c0,.84.17,1.64.24,2.46a45.58,45.58,0,0,0,51.6-20.67,29.06,29.06,0,0,0-51.84,18.21M262,188.8a62.48,62.48,0,0,0-98.67-14.11A54.1,54.1,0,0,0,262,188.8M201,119a38.45,38.45,0,0,1,1.63-10.88,54.2,54.2,0,0,0-41.25,52.62c0,.53.09,1,.11,1.56a72.36,72.36,0,0,1,45.76-16.17c1.65,0,3.26.22,4.9.33A39.43,39.43,0,0,1,201,119m66,58.51a52.31,52.31,0,0,0,1.06-30.13A39.08,39.08,0,0,1,246.91,158a73,73,0,0,1,20.14,19.47M178.24,274.6a62.39,62.39,0,0,0,82.94-23.76,45.79,45.79,0,0,0-82.94,23.76m89.61,16.14a44.26,44.26,0,0,0-1.17-29.49,73.7,73.7,0,0,1-19.83,19,39.25,39.25,0,0,1,21,10.49M179,286.37a45.9,45.9,0,0,0,22.23,31,39.44,39.44,0,0,1,10.93-25.43c-1.63.11-3.23.3-4.87.3A73.13,73.13,0,0,1,179,286.37m90.2-161.66a28.13,28.13,0,0,0,.64-5.71,29.2,29.2,0,0,0-29.19-29.21,28.71,28.71,0,0,0-18.47,6.71,64.06,64.06,0,0,1,47,28.21M266,240.28a60.12,60.12,0,0,0,.74-40.14,64,64,0,0,1-31.91,22.28A56.48,56.48,0,0,1,266,240.28m-121.27-21.1a62.28,62.28,0,0,0,23.81,48.94,56.46,56.46,0,0,1,36.69-43.57A64.67,64.67,0,0,1,155.56,184a62.3,62.3,0,0,0-10.83,35.22m70.4,114a28.88,28.88,0,0,0,25.51,15.41,29.21,29.21,0,0,0,29.19-29.22,27.92,27.92,0,0,0-1.16-7.65A55.73,55.73,0,0,1,224,334a55.11,55.11,0,0,1-8.83-.8"
              fill="#005eb8" fill-rule="evenodd"/>
        <path d="M315.7,382a12.52,12.52,0,1,1-12.51,12.52A12.51,12.51,0,0,1,315.7,382m-95.91,12.52A12.51,12.51,0,1,0,232.3,382a12.51,12.51,0,0,0-12.51,12.52m-75.07-33.39a12.51,12.51,0,1,0,12.51-12.52,12.52,12.52,0,0,0-12.51,12.52m-50-58.65a12.51,12.51,0,1,0,12.51-12.52,12.52,12.52,0,0,0-12.51,12.52M78,219a12.51,12.51,0,1,0,12.51-12.52A12.51,12.51,0,0,0,78,219m16.68-83.47A12.51,12.51,0,1,0,107.19,123a12.52,12.52,0,0,0-12.51,12.53m333.62.21a12.51,12.51,0,1,0,12.51-12.53A12.51,12.51,0,0,0,428.3,135.7m-50-58.44a12.51,12.51,0,1,0,12.51-12.52,12.51,12.51,0,0,0-12.51,12.52m-233.54,0a12.51,12.51,0,1,0,12.51-12.52,12.51,12.51,0,0,0-12.51,12.52m75.07-41.74A12.51,12.51,0,1,0,232.3,23a12.5,12.5,0,0,0-12.51,12.52m83.4,0A12.51,12.51,0,1,0,315.7,23a12.51,12.51,0,0,0-12.51,12.52m75.07,325.57a12.51,12.51,0,1,0,12.51-12.52,12.52,12.52,0,0,0-12.51,12.52m50-58.44a12.51,12.51,0,1,0,12.51-12.52,12.52,12.52,0,0,0-12.51,12.52M445,219.17a12.51,12.51,0,1,0,12.51-12.52A12.52,12.52,0,0,0,445,219.17"
              fill="#005eb8" fill-rule="evenodd"/>
    </g>
    <path d="M29,613.92c-2.51,0-3.49-1-3.49-3.49V488.69c0-2.54,1-3.52,3.49-3.52H97.57c2.51,0,3.47,1,3.47,3.52v6.21c0,2.53-1,3.51-3.47,3.51H41.39v42h50c2.53,0,3.5,1,3.5,3.5v6.21c0,2.53-1,3.51-3.5,3.51h-50V600.7H97.57c2.51,0,3.47,1,3.47,3.51v6.22c0,2.52-1,3.49-3.47,3.49Zm155.92,0c-2.51,0-3.49-1-3.49-3.49v-7.78c-4.83,7.39-13.16,13.22-26.92,13.22-24.23,0-38.93-17.89-38.93-48.42,0-30.34,14.7-48.82,38.93-48.82,13.36,0,21.5,5.44,26,11.87V477.79c0-2.54,1-3.5,3.47-3.5h8.16c2.51,0,3.46,1,3.46,3.5V610.43c0,2.52-1,3.49-3.46,3.49Zm-27.52-10.29c8.93,0,17.26-3.7,23.07-12.83V543.72c-5.81-9.14-14.14-12.83-23.07-12.83-15.67,0-26.14,12.05-26.14,36.36S141.72,603.63,157.39,603.63ZM230,497.43c-6.38,0-10.27-4.65-10.27-10.5s3.89-10.49,10.27-10.49,10.27,4.64,10.27,10.49S236.41,497.43,230,497.43ZM226,613.92c-2.51,0-3.48-1-3.48-3.49V524.07c0-2.52,1-3.49,3.48-3.49h8.14c2.52,0,3.48,1,3.48,3.49v86.36c0,2.52-1,3.49-3.48,3.49Zm65.87,2c-14.74,0-25.58-4.66-32-10.11a3.14,3.14,0,0,1-.57-4.86L263,596c1.55-1.93,2.9-2.13,4.84-.77a37.51,37.51,0,0,0,24.2,8.17c11,0,20.16-4.68,20.16-14,0-10.3-9.49-13.22-21.11-16.14-13.18-3.3-31.57-6.42-31.57-27.42,0-16.72,14.5-27.23,35.24-27.23,12.78,0,22.47,3.31,28.67,7.78,1.94,1.38,2.14,2.92,1,4.87l-3.48,5.05c-1.35,2.14-2.51,2.34-4.64,1-5.44-3.69-12.6-6.22-21.71-6.22-13.16,0-19.95,6.22-19.95,14.19,0,10.7,9.7,12.46,20.93,15.16,14.72,3.5,31.77,8.37,31.77,28C327.27,605.76,311.77,615.87,291.83,615.87Zm92.38,0c-30.41,0-42.82-23.53-42.82-48.62s13-48.62,42.82-48.62c30.41,0,42.8,23.53,42.8,48.62S414,615.87,384.21,615.87Zm0-12c19.37,0,27.12-17.31,27.12-36.57s-7.75-36.56-27.12-36.56S357.09,548,357.09,567.25,364.84,603.82,384.21,603.82ZM451,613.92c-2.51,0-3.49-1-3.49-3.49V524.07c0-2.52,1-3.49,3.49-3.49h7.17c2.53,0,3.49,1,3.49,3.49v7.78c5.22-6.61,13.95-13.22,28.67-13.22,23,0,32.15,16.34,32.15,35.4v56.4c0,2.52-1,3.49-3.48,3.49h-8.14c-2.53,0-3.49-1-3.49-3.49v-55c0-10.88-3.68-24.1-20.15-24.1a29.82,29.82,0,0,0-24.6,12.44v66.71c0,2.52-1,3.49-3.49,3.49Z"
          fill="#005eb8" fill-rule="evenodd"/>
</svg>