<?xml version="1.0" encoding="utf-8"?>
<!-- Generator: Adobe Illustrator 19.2.1, SVG Export Plug-In . SVG Version: 6.00 Build 0)  -->
<svg version="1.1" id="layer" xmlns="http://www.w3.org/2000/svg" xmlns:xlink="http://www.w3.org/1999/xlink" x="0px" y="0px"
	 viewBox="0 0 652 652" style="enable-background:new 0 0 652 652;" xml:space="preserve">
<style type="text/css">
	.st0{fill:#2B2D30;}
	.st1{fill:none;}
	.st2{fill:#E9EAE8;}
	.st3{fill:#B6B7B7;}
</style>
<path class="st0" d="M150.3,386.2h4.2l5.5,20.1l5.2-20.1h4.1l5.9,20.3l5.2-20.3h3.8l-6.8,24.4h-4.7l-5.6-18.7l-5,18.7h-4.8
	L150.3,386.2z M187.9,409c-1.3-1.4-2-3.3-1.9-5.3c-0.1-2,0.7-3.9,2.1-5.3c2.4-1.8,5.3-2.6,8.2-2.3h5.1v-1.5c0-0.8-0.1-1.7-0.3-2.5
	c-0.2-0.6-0.5-1.2-0.9-1.7c-1.5-1.1-3.3-1.6-5.1-1.4c-2.2,0-4.4,0.2-6.6,0.6l-0.2-3.2c2.4-0.6,4.9-0.9,7.4-0.9
	c2.7-0.2,5.5,0.6,7.6,2.2c0.8,0.8,1.3,1.7,1.7,2.7c0.4,1.3,0.5,2.6,0.5,4v16.1h-3.4L202,409c-2.3,1.5-4.9,2.3-7.7,2.3
	C191.9,411.5,189.6,410.7,187.9,409z M198.4,407.6c1.1-0.3,2.1-0.7,3.1-1.2v-7.3H197c-1.9-0.2-3.8,0.3-5.5,1.2
	c-0.9,0.8-1.5,2-1.4,3.2c-0.1,1.2,0.4,2.4,1.3,3.3c1.1,0.8,2.4,1.2,3.7,1.1C196.2,408,197.3,407.9,198.4,407.6z M218.3,422.4
	c-0.8-0.1-1.5-0.2-2.3-0.3l-0.4-3.2c1.6,0.2,3.1,0.3,4.7,0.3c1.8,0.2,3.6-0.3,5.1-1.4c0.6-0.5,1-1.2,1.2-2c0.3-1.1,0.4-2.2,0.4-3.3
	v-3.3c-2.4,1.4-5.1,2.2-7.8,2.2c-2.3,0.2-4.5-0.6-6.1-2.1c-1.5-1.8-2.2-4.1-2-6.4v-16.6h4.1v16.1c0,0.8,0.1,1.7,0.3,2.5
	c0.2,0.6,0.5,1.2,0.9,1.6c1.1,0.9,2.5,1.4,3.9,1.2c1.1,0,2.3-0.2,3.4-0.4c1.2-0.3,2.3-0.7,3.3-1.2v-19.9h4.1v26.3
	c0.7,4.8-2.6,9.3-7.4,10.1c-0.9,0.1-1.8,0.1-2.7,0C220,422.6,219.2,422.5,218.3,422.4z M236.8,386.2h3.4l0.2,2.1
	c1.9-1.7,4.4-2.7,6.9-2.7c0.5,0,1.1,0,1.6,0.2v3.7c-0.7,0-1.4-0.1-2.1-0.1c-2.1,0-4.2,0.5-5.9,1.6v19.7h-4.1L236.8,386.2z
	 M252.6,409c-1.3-1.4-2-3.3-1.9-5.3c-0.1-2,0.7-3.9,2.2-5.3c2.4-1.8,5.3-2.6,8.2-2.3h5.1v-1.5c0-0.8-0.1-1.7-0.3-2.5
	c-0.2-0.6-0.5-1.2-1-1.7c-1.5-1.1-3.3-1.6-5.1-1.4c-2.2,0-4.4,0.2-6.6,0.6l-0.2-3.2c2.4-0.6,4.9-0.9,7.4-0.9
	c2.7-0.2,5.5,0.6,7.6,2.2c0.8,0.8,1.3,1.7,1.7,2.7c0.4,1.3,0.5,2.6,0.5,4v16.1h-3.3l-0.3-1.7c-2.3,1.5-4.9,2.3-7.7,2.3
	C256.6,411.5,254.3,410.7,252.6,409z M263,407.6c1.1-0.3,2.1-0.7,3.1-1.2v-7.3h-4.5c-1.9-0.2-3.8,0.3-5.5,1.2
	c-0.9,0.8-1.5,2-1.4,3.2c-0.1,1.2,0.4,2.4,1.3,3.3c1.1,0.8,2.4,1.2,3.7,1.1C260.8,408,261.9,407.9,263,407.6L263,407.6z M260.6,361
	L219,219.4h-30.6l-26.5,90.3l-26.5-90.3h-30.6l-26.7,90.7l-26.6-90.7H21L62.6,361h30.9l26.5-90.2l26.5,90.2h30.6l26.5-90.2
	l26.5,90.2H260.6z"/>
<line class="st1" x1="321.3" y1="219.4" x2="321.3" y2="361.4"/>
<rect x="320.6" y="219.4" class="st2" width="1.4" height="142"/>
<path class="st3" d="M443.9,322.9c-3.7,5.5-9,10.4-13.5,10.4c-1.9,0-2.7-1-2.7-3.2c0-1.4,0.2-2.8,0.6-4.1c4.6-2.1,8.8-5,12.4-8.5
	c2-1.8,3.3-4.3,3.6-7c0.1-2.4-1.4-3.4-4.2-3.4c-4.7,0.4-9,2.6-12.1,6.1c-4.3,4.6-7,10.5-7.5,16.7c0,4.1,1.9,7.3,7.1,7.1
	c5.6-0.2,11.1-4.5,13.9-7.6c-0.3,1.2-0.5,2.4-0.6,3.6c-0.2,3.4,2.1,6.4,5.3,7.2l0.7-0.3c-0.3-1-0.4-2.1-0.3-3.1
	c0.6-4.4,1.8-8.6,3.7-12.6c3.9-9.8,9.6-21,12-27.7l-6,1.1c-0.8,0.2-1.5,0.8-1.8,1.6c-2.9,6.1-5.8,12.6-9.5,21.1
	C444.7,321,444.4,321.9,443.9,322.9z M438.4,309.9c0.9,0,1.2,0.6,1.2,1.4c0,3.8-4.7,8.7-10.7,12.3
	C430.4,317.6,434.6,309.8,438.4,309.9z M540,332.7c0,2.7,1.7,4.4,5,4.3c3.7-0.4,7.2-2.1,9.7-4.8c0.5,2.9,2.6,5,6.9,4.9
	c4.6-0.5,8.8-2.7,11.7-6.2v0.9c-0.3,2.6,1.5,4.9,4.1,5.2c0.3,0,0.6,0,0.9,0c3.7,0,8-2.7,11.3-7.6h0.1c-0.4,1.4-0.6,2.9-0.7,4.3
	c-0.2,3.1,2,5.8,5.1,6.3l0.7-0.3c-1.1-2.6,0.4-9.1,1.1-11.3c2.2-6.7,4.8-13.2,7.8-19.5c-1.7-1-3.6-1.5-5.5-1.5
	c-7.7-0.3-15.4,2.9-21.1,12.9c-1.1,1.9-2,3.8-2.7,5.9c-0.6,0.8-1.3,1.6-2,2.4c-2,2-4.9,4.5-7.9,4.5c-1.7,0-2.6-1.1-2.6-3.2
	c0-8,7.1-20.1,11.9-20.2c1.4,0,1.9,0.6,1.9,1.7c-0.2,1.7-0.9,3.2-2.2,4.3l0.6,0.5c3.2-1.2,6.2-3.5,6.2-5.9c0-2.7-3.1-3.2-5.9-3.2
	c-4.7,0.3-9.1,2.4-12.1,6c-4,4.3-6.7,9.8-7.6,15.6c-1.5,2.1-3.6,3.6-6.1,4.2c-0.8,0.1-1.4-0.4-1.5-1.2c0-0.1,0-0.1,0-0.2
	c0.2-1.6,0.6-3.2,1.3-4.7c2.1-5.2,5-11.6,8.7-19.2c0,0-5.6,0.9-6.4,1.2c-0.8,0.2-1.5,0.8-1.9,1.5c-2.4,5.1-5.2,11-7,15.3
	C540.9,327.9,540.3,330.3,540,332.7L540,332.7z M592.5,310.8c1.4-0.7,3-0.9,4.5-0.6c-0.5,1-2.6,5.3-4.3,9.2
	c-2.7,6.1-6.6,12.3-10.3,13.2c-1.3,0.4-2-0.2-2-1.5C580.5,325.7,586.4,313.6,592.5,310.8L592.5,310.8z M453.9,329.7
	c-0.4,3.5,2.2,6.7,5.7,7.1c0.6,0.1,1.1,0.1,1.7,0c5.7-0.2,11-3.5,15.5-8.2c-1.1,3-2.1,5.7-2.7,7.1c-1.7,4.1-2.9,7.6-5.5,9.5l0.3,0.5
	c7.6,0.4,10.4-4.9,13.5-13.5c3.1-8.6,5.7-16.2,7.8-21.4c3.5,0.2,7.1,0,10.6-0.5c-6.8,3-12.7,14-12,21.1c0.1,3.1,2.6,5.5,5.7,5.4
	c0.2,0,0.4,0,0.5,0c7.9,0,14.5-9.3,17-15.4c1.4-3,2.2-6.2,2.6-9.5c1.9-0.3,3.7-0.6,4.6-0.8c1.7-0.2,1.4,1.7,0.8,3.1
	c-3.2,9-8.8,21.9-8.8,22.2h6.1c2.6-5.5,4.3-9.1,6.4-12.8c2.6-4.4,8.2-11.7,10.5-11.8c0.8,0,1,0.5,0.8,1.4c-0.4,3-7.7,14.5-7.6,20.2
	c-0.2,3.3,2.2,6.3,5.5,6.8l0.7-0.4c-0.4-1-0.6-2-0.5-3c0-3.8,3-10.4,4.2-13c1.9-4,5.3-9.9,5.1-13.2c-0.1-1.6-1.4-3-4-3
	c-5,0-10,4.8-14.2,11.4H524c1.4-2.9,2.4-6,3-9.2c0-1.7-0.9-2.2-2.7-2.2c-1.7,0.2-3.3,0.5-4.9,1c-2.5,0.6-5.1,1.4-7.9,1.9
	c-1.8,0.2-2.4,0.5-2.3,1.2c0.4,10-6.4,21.7-11,21.7c-1.9,0-2.4-1.4-2.4-3.4c0-6.8,5.6-18.4,11.2-20.3c0.5-0.1,0.9-0.2,1.3-0.3
	l0.7-1.9c-1.8,0.2-3.7,0.3-5.5,0.3h-12.1c3.2-7.6,7.7-12.6,14.3-12.9c4.1-0.1,6.8,1.4,7.1,3.8c0.2,2-0.5,3.9-2,5.3l0.5,0.5
	c3.6-1.7,6.1-4.6,6.1-6.6c0-3.1-3.6-5-9.6-4.9c-7.5,0-16.7,1.7-23.2,15.1c-2,0.2-3.8,1.1-5.1,2.6l0.3,0.6c1.2-0.3,2.5-0.5,3.7-0.4
	c-0.9,2.2-2.7,7-4.5,11.8c-5.4,7.2-10.9,10.5-14.9,10.5c-2.2,0-3.1-1.1-3.1-3.2c0-1.4,0.2-2.8,0.6-4.1c4.6-2.1,8.8-5,12.4-8.5
	c2-1.8,3.3-4.3,3.7-7c0.1-2.4-1.4-3.4-4.2-3.4c-4.7,0.4-9,2.6-12.1,6.1C457,317.5,454.3,323.4,453.9,329.7L453.9,329.7z
	 M471.6,309.9c0.7,0,1.3,0.5,1.3,1.2c0,0.1,0,0.1,0,0.2c0,3.8-4.7,8.7-10.8,12.3C463.6,317.6,467.9,309.8,471.6,309.9L471.6,309.9z
	 M557.2,303c1.9-0.2,3.4-1.6,3.8-3.5c0.5-1.3-0.2-2.8-1.6-3.2c-0.3-0.1-0.6-0.1-0.9-0.1c-1.9,0.2-3.4,1.6-3.8,3.5
	c-0.4,1.3,0.3,2.8,1.6,3.2C556.7,303,556.9,303,557.2,303z M495.7,357.7c-62.2,0-125.3,0.8-125.3,1.7c0,0.9,63.1,1.7,125.3,1.7
	s125.3-0.8,125.3-1.7S557.9,357.7,495.7,357.7L495.7,357.7z M395.4,313.4l0.4-0.4c-0.5-1.1-0.8-2.3-0.7-3.5
	c0.2-8.1,8.8-12.7,22.1-12.7h7.4c-4.8,2.7-8.6,7-10.7,12.1c-1.2,2.7-6.8,17.2-9.2,23.7c-2.9,7.7-4.7,11.3-7,12.5l0.4,0.7
	c6.4,0.4,10.2-2.9,12.7-8.9c2.3-5.7,5.5-14.8,7-18.9c4.9-13,7.1-18.5,11-21.2h10.7c5.9-0.2,8.4-1.6,10.2-3.9l-0.4-0.5
	c-2.4,0.8-4.9,1.1-7.3,0.9h-26.6c-14.9,0-24.1,4.9-25.6,12.2c-0.8,3.4,1.2,6.8,4.6,7.6C394.7,313.3,395.1,313.3,395.4,313.4
	L395.4,313.4z M381.9,224.3h3.2l7.5,21.7h-2.9l-1.9-5.8h-8.2l-1.8,5.8H375L381.9,224.3z M387,238l-3.5-10.7l0,0l-3.2,10.7L387,238z
	 M394.9,230.5h2.2l0.1,1.1c1.6-1,3.5-1.6,5.4-1.6c1.4-0.1,2.8,0.4,3.9,1.4c1,1.1,1.4,2.6,1.3,4.1V246h-2.6v-10.2
	c0.1-0.9-0.2-1.9-0.8-2.6c-0.7-0.6-1.6-0.9-2.5-0.8c-1.5,0-3,0.4-4.3,1v12.6h-2.6V230.5z M417.4,225.8L417.4,225.8
	c0-1.2,0.6-1.7,1.5-1.7h0.2c0.9,0,1.5,0.5,1.5,1.7l0,0c0,1.2-0.6,1.7-1.5,1.7H419C418,227.5,417.4,227,417.4,225.8z M417.7,230.5
	h2.6V246h-2.6V230.5z M424.4,230.5h2.2l0.1,1.1c1.6-1,3.5-1.6,5.4-1.6c1.4-0.1,2.8,0.4,3.9,1.4c1,1.1,1.4,2.6,1.3,4.1V246h-2.6
	v-10.2c0.1-0.9-0.2-1.9-0.8-2.6c-0.7-0.6-1.6-0.9-2.5-0.8c-1.5,0-3,0.4-4.3,1v12.6h-2.6V230.5z M440.9,225.8L440.9,225.8
	c0-1.2,0.6-1.7,1.5-1.7h0.2c0.9,0,1.5,0.5,1.5,1.7l0,0c0,1.2-0.6,1.7-1.5,1.7h-0.2C441.5,227.5,440.9,227,440.9,225.8z M441.2,230.5
	h2.6V246h-2.6V230.5z M449.8,245.2c-0.8-1.1-1.1-2.5-0.9-3.9v-8.9H446v-1.5l2.8-0.4v-3.7c0.8-0.3,1.7-0.4,2.6-0.5v4.1h4.1v1.9h-4.1
	v8.6c0,1.5,0.1,2.2,0.5,2.7c0.5,0.5,1.3,0.7,2,0.6c0.8,0,1.6-0.1,2.3-0.2l0.1,1.9c-1,0.3-2.1,0.4-3.2,0.4
	C452,246.6,450.7,246.1,449.8,245.2L449.8,245.2z M458.7,225.8L458.7,225.8c0-1.2,0.6-1.7,1.5-1.7h0.2c0.9,0,1.5,0.5,1.5,1.7l0,0
	c0,1.2-0.6,1.7-1.5,1.7h-0.2C459.3,227.5,458.7,227,458.7,225.8z M459,230.5h2.6V246H459L459,230.5z M466.1,244.9
	c-0.9-0.9-1.3-2.1-1.2-3.4c0-1.3,0.5-2.5,1.4-3.4c1.5-1.1,3.4-1.7,5.3-1.5h3.2v-0.9c0.1-1-0.2-1.9-0.8-2.6c-0.9-0.7-2.1-1-3.2-0.9
	c-1.4,0-2.8,0.1-4.2,0.4l-0.1-2c1.5-0.4,3.1-0.5,4.7-0.5c1.7-0.2,3.5,0.4,4.8,1.4c1.1,1.1,1.6,2.7,1.4,4.2v10.3h-2.1l-0.2-1
	c-1.4,1-3.1,1.5-4.9,1.5C468.6,246.6,467.2,246,466.1,244.9L466.1,244.9z M474.7,243.3v-4.6h-2.9c-1.2-0.1-2.4,0.2-3.5,0.8
	c-0.6,0.5-0.9,1.3-0.9,2.1c0,1.9,1.2,2.7,3.2,2.7C472.1,244.2,473.4,243.9,474.7,243.3L474.7,243.3z M483.1,245.2
	c-0.8-1.1-1.2-2.5-1-3.9v-9h-2.7v-1.5l2.7-0.4v-3.7c0.8-0.3,1.7-0.4,2.6-0.5v4.1h4.1v1.9h-4.1v8.6c0,1.5,0.1,2.2,0.5,2.7
	c0.5,0.5,1.3,0.7,2,0.6c0.8,0,1.6-0.1,2.3-0.2l0.1,1.9c-1,0.3-2.1,0.4-3.2,0.4C485.3,246.6,484.1,246.1,483.1,245.2L483.1,245.2z
	 M492,225.8L492,225.8c0-1.2,0.6-1.7,1.6-1.7h0.2c1,0,1.5,0.5,1.5,1.7l0,0c0,1.2-0.6,1.7-1.5,1.7h-0.2
	C492.6,227.5,492,227,492,225.8z M492.3,230.5h2.6V246h-2.6V230.5z M497.3,230.5h2.7l4.3,12.8l4.1-12.8h2.7l-5.5,15.5h-2.9
	L497.3,230.5z M514.4,244.6c-1.5-1.8-2.2-4-2-6.3c0-5.5,2.7-8.2,6.7-8.2c4.3,0,6.4,3.1,6.4,8.2v0.6c0,0.2-0.1,0.3-0.4,0.3h-10
	c-0.1,1.5,0.4,2.9,1.4,4c1.1,0.9,2.5,1.3,4,1.2c1.3,0,2.6-0.2,3.8-0.4l0.2,2c-1.5,0.4-3,0.6-4.6,0.6
	C517.9,246.6,515.9,245.9,514.4,244.6L514.4,244.6z M522.9,237.2c-0.1-3-1.2-5.1-3.8-5.1c-2.6,0-3.9,1.9-4,5.1H522.9z M534,238.2
	c0-5.2,2.2-8.2,7.1-8.2c4.8,0,7.1,3,7.1,8.2s-2.2,8.2-7.1,8.2S534,243.4,534,238.2z M545.3,238.2c0-4-1.1-6-4.3-6
	c-3.2,0-4.3,2.1-4.3,6c0,4,1.1,6.1,4.3,6.1S545.3,242.2,545.3,238.2z M552.3,232.4h-2.8v-1.5l2.8-0.4v-2.1c-0.1-1.5,0.3-2.9,1.1-4.1
	c1.1-1.1,2.6-1.6,4.1-1.5c0.9,0,1.7,0.1,2.6,0.3v2c-0.6,0-1.6-0.1-2.2-0.1c-0.8-0.1-1.7,0.2-2.3,0.7c-0.5,0.5-0.6,1.3-0.6,2.7v2.1
	h4.1v1.9H555V246h-2.6L552.3,232.4z M560.5,234.9v-0.1c0-1.2,0.6-1.7,1.6-1.7h0.2c0.9,0,1.6,0.5,1.6,1.7v0.1c0,1.2-0.6,1.7-1.6,1.7
	h-0.2C561.2,236.6,560.5,236.1,560.5,234.9z M560.5,244.7v-0.1c0-1.2,0.6-1.7,1.6-1.7h0.2c0.9,0,1.6,0.5,1.6,1.7v0.1
	c0,1.2-0.6,1.7-1.6,1.7h-0.2C561.2,246.4,560.5,246,560.5,244.7z"/>
</svg>
